<mxfile host="app.diagrams.net" modified="2023-08-24T09:47:40.037Z" agent="Mozilla/5.0 (Windows NT 10.0; Win64; x64) AppleWebKit/537.36 (KHTML, like Gecko) Chrome/115.0.0.0 Safari/537.36" etag="uoGIYHW9LRHGTvUqf97I" version="21.6.8" type="device">
  <diagram id="C5RBs43oDa-KdzZeNtuy" name="Page-1">
    <mxGraphModel dx="1462" dy="1264" grid="1" gridSize="10" guides="1" tooltips="1" connect="1" arrows="1" fold="1" page="1" pageScale="1" pageWidth="827" pageHeight="1169" math="0" shadow="0">
      <root>
        <mxCell id="WIyWlLk6GJQsqaUBKTNV-0" />
        <mxCell id="WIyWlLk6GJQsqaUBKTNV-1" parent="WIyWlLk6GJQsqaUBKTNV-0" />
        <mxCell id="xALUO3HwdJlkxT8yfgA3-7" value="&lt;font style=&quot;font-size: 30px;&quot;&gt;User&lt;/font&gt;" style="rounded=0;whiteSpace=wrap;html=1;strokeWidth=4;" parent="WIyWlLk6GJQsqaUBKTNV-1" vertex="1">
          <mxGeometry x="990" y="320" width="1330" height="60" as="geometry" />
        </mxCell>
        <mxCell id="xALUO3HwdJlkxT8yfgA3-140" value="" style="endArrow=none;html=1;rounded=0;entryX=0;entryY=1;entryDx=0;entryDy=0;strokeWidth=4;" parent="WIyWlLk6GJQsqaUBKTNV-1" edge="1">
          <mxGeometry width="50" height="50" relative="1" as="geometry">
            <mxPoint x="1000" y="2560" as="sourcePoint" />
            <mxPoint x="990" y="380" as="targetPoint" />
          </mxGeometry>
        </mxCell>
        <mxCell id="xALUO3HwdJlkxT8yfgA3-143" value="" style="endArrow=none;html=1;rounded=0;entryX=0;entryY=1;entryDx=0;entryDy=0;strokeWidth=4;" parent="WIyWlLk6GJQsqaUBKTNV-1" edge="1">
          <mxGeometry width="50" height="50" relative="1" as="geometry">
            <mxPoint x="2320" y="2560" as="sourcePoint" />
            <mxPoint x="2320.000000000001" y="380" as="targetPoint" />
          </mxGeometry>
        </mxCell>
        <mxCell id="TLsUlpolCmr_xRNrr_nB-163" value="" style="endArrow=none;html=1;rounded=0;strokeWidth=4;" parent="WIyWlLk6GJQsqaUBKTNV-1" edge="1">
          <mxGeometry width="50" height="50" relative="1" as="geometry">
            <mxPoint x="990" y="2560" as="sourcePoint" />
            <mxPoint x="2320" y="2560" as="targetPoint" />
          </mxGeometry>
        </mxCell>
        <mxCell id="Z2lk5pDnI6dE7z7ncP6N-10" value="&lt;font style=&quot;font-size: 22px;&quot;&gt;insert ข้อมูลที่สกัดมาจากคอร์สนี้เข้าฐานข้อมูล&lt;/font&gt;" style="rounded=0;whiteSpace=wrap;html=1;strokeWidth=4;" parent="WIyWlLk6GJQsqaUBKTNV-1" vertex="1">
          <mxGeometry x="1708.75" y="1730" width="220" height="120" as="geometry" />
        </mxCell>
        <mxCell id="Z2lk5pDnI6dE7z7ncP6N-19" value="" style="endArrow=classic;html=1;rounded=0;strokeWidth=4;" parent="WIyWlLk6GJQsqaUBKTNV-1" edge="1">
          <mxGeometry width="50" height="50" relative="1" as="geometry">
            <mxPoint x="1809" y="1690" as="sourcePoint" />
            <mxPoint x="1809.22" y="1730" as="targetPoint" />
          </mxGeometry>
        </mxCell>
        <mxCell id="Z2lk5pDnI6dE7z7ncP6N-20" value="" style="ellipse;whiteSpace=wrap;html=1;aspect=fixed;fillColor=#000000;strokeWidth=4;" parent="WIyWlLk6GJQsqaUBKTNV-1" vertex="1">
          <mxGeometry x="1613.75" y="450" width="50" height="50" as="geometry" />
        </mxCell>
        <mxCell id="Z2lk5pDnI6dE7z7ncP6N-21" value="" style="endArrow=classic;html=1;rounded=0;exitX=0.5;exitY=1;exitDx=0;exitDy=0;strokeWidth=4;" parent="WIyWlLk6GJQsqaUBKTNV-1" source="Z2lk5pDnI6dE7z7ncP6N-20" edge="1">
          <mxGeometry width="50" height="50" relative="1" as="geometry">
            <mxPoint x="1653.75" y="680" as="sourcePoint" />
            <mxPoint x="1638.75" y="550" as="targetPoint" />
          </mxGeometry>
        </mxCell>
        <mxCell id="Z2lk5pDnI6dE7z7ncP6N-22" value="" style="endArrow=classic;html=1;rounded=0;exitX=0.5;exitY=1;exitDx=0;exitDy=0;entryX=0.5;entryY=0;entryDx=0;entryDy=0;strokeWidth=4;" parent="WIyWlLk6GJQsqaUBKTNV-1" source="Z2lk5pDnI6dE7z7ncP6N-23" target="Z2lk5pDnI6dE7z7ncP6N-24" edge="1">
          <mxGeometry width="50" height="50" relative="1" as="geometry">
            <mxPoint x="1718.75" y="720" as="sourcePoint" />
            <mxPoint x="1738.75" y="810" as="targetPoint" />
          </mxGeometry>
        </mxCell>
        <mxCell id="Z2lk5pDnI6dE7z7ncP6N-23" value="&lt;span style=&quot;font-size: 22px;&quot;&gt;เปิดไฟล์ข้อมูลการลงทะเบียนของคอร์ส&lt;/span&gt;" style="rounded=0;whiteSpace=wrap;html=1;strokeWidth=4;" parent="WIyWlLk6GJQsqaUBKTNV-1" vertex="1">
          <mxGeometry x="1528.75" y="545" width="220" height="140" as="geometry" />
        </mxCell>
        <mxCell id="Z2lk5pDnI6dE7z7ncP6N-24" value="&lt;font style=&quot;font-size: 22px;&quot;&gt;สกัดข้อมูล ปี-เทอมการศึกษา&lt;br&gt;เเละรหัสวิชาจากส่วนหัวของไฟล์&lt;/font&gt;" style="rounded=0;whiteSpace=wrap;html=1;strokeWidth=4;" parent="WIyWlLk6GJQsqaUBKTNV-1" vertex="1">
          <mxGeometry x="1503.13" y="740" width="271.25" height="140" as="geometry" />
        </mxCell>
        <mxCell id="Z2lk5pDnI6dE7z7ncP6N-25" value="&lt;font style=&quot;font-size: 22px;&quot;&gt;อ่านข้อมูล ปี-เทอมการศึกษา&lt;br style=&quot;border-color: var(--border-color);&quot;&gt;&lt;/font&gt;&lt;span style=&quot;font-size: 22px;&quot;&gt;เเละรหัสวิชา&lt;/span&gt;&lt;span style=&quot;font-size: 22px;&quot;&gt;นี้&lt;br&gt;จาก table คอร์ส&lt;br&gt;&lt;/span&gt;" style="rounded=0;whiteSpace=wrap;html=1;strokeWidth=4;" parent="WIyWlLk6GJQsqaUBKTNV-1" vertex="1">
          <mxGeometry x="1504.3799999999999" y="950" width="268.75" height="140" as="geometry" />
        </mxCell>
        <mxCell id="Z2lk5pDnI6dE7z7ncP6N-26" value="" style="endArrow=classic;html=1;rounded=0;exitX=0;exitY=0.5;exitDx=0;exitDy=0;exitPerimeter=0;dashed=1;entryX=1;entryY=0.5;entryDx=0;entryDy=0;strokeWidth=4;" parent="WIyWlLk6GJQsqaUBKTNV-1" source="Z2lk5pDnI6dE7z7ncP6N-29" target="Z2lk5pDnI6dE7z7ncP6N-25" edge="1">
          <mxGeometry width="50" height="50" relative="1" as="geometry">
            <mxPoint x="1752.75" y="1030" as="sourcePoint" />
            <mxPoint x="1764" y="1000" as="targetPoint" />
          </mxGeometry>
        </mxCell>
        <mxCell id="Z2lk5pDnI6dE7z7ncP6N-27" value="" style="endArrow=classic;html=1;rounded=0;exitX=0.5;exitY=1;exitDx=0;exitDy=0;entryX=0.5;entryY=0;entryDx=0;entryDy=0;strokeWidth=4;" parent="WIyWlLk6GJQsqaUBKTNV-1" source="Z2lk5pDnI6dE7z7ncP6N-24" target="Z2lk5pDnI6dE7z7ncP6N-25" edge="1">
          <mxGeometry width="50" height="50" relative="1" as="geometry">
            <mxPoint x="1636.48" y="890" as="sourcePoint" />
            <mxPoint x="1636.48" y="955" as="targetPoint" />
          </mxGeometry>
        </mxCell>
        <mxCell id="Z2lk5pDnI6dE7z7ncP6N-28" value="" style="endArrow=classic;html=1;rounded=0;exitX=0.5;exitY=1;exitDx=0;exitDy=0;entryX=0.5;entryY=0;entryDx=0;entryDy=0;strokeWidth=4;" parent="WIyWlLk6GJQsqaUBKTNV-1" source="Z2lk5pDnI6dE7z7ncP6N-25" target="_ORsjMrNldVAI8FVxGZS-4" edge="1">
          <mxGeometry width="50" height="50" relative="1" as="geometry">
            <mxPoint x="1636.48" y="1100" as="sourcePoint" />
            <mxPoint x="1636.75" y="1160" as="targetPoint" />
          </mxGeometry>
        </mxCell>
        <mxCell id="Z2lk5pDnI6dE7z7ncP6N-29" value="&lt;font style=&quot;font-size: 22px;&quot;&gt;&lt;font style=&quot;font-size: 22px;&quot;&gt;Database&amp;nbsp;&lt;br&gt;&lt;br&gt;Course&amp;nbsp;Table&lt;br&gt;&lt;br&gt;&lt;br style=&quot;border-color: var(--border-color);&quot;&gt;&lt;br&gt;&lt;/font&gt;&lt;/font&gt;" style="shape=cylinder3;whiteSpace=wrap;html=1;boundedLbl=1;backgroundOutline=1;size=15;strokeWidth=4;" parent="WIyWlLk6GJQsqaUBKTNV-1" vertex="1">
          <mxGeometry x="1990" y="952.5" width="181.25" height="135" as="geometry" />
        </mxCell>
        <mxCell id="_ORsjMrNldVAI8FVxGZS-0" value="&lt;font style=&quot;font-size: 22px;&quot;&gt;ส่งข้อความผลการทำงานกลับเป็น string ว่า&lt;br style=&quot;border-color: var(--border-color);&quot;&gt;ได้ดำเนินการอะไรไป&lt;br style=&quot;border-color: var(--border-color);&quot;&gt;&amp;nbsp;(insert หรือ&lt;br style=&quot;border-color: var(--border-color);&quot;&gt;ไม่ insert เพราะมีข้อมูลวิชานี้อยู่เเล้ว)&lt;/font&gt;&lt;span style=&quot;font-size: 22px;&quot;&gt;&lt;br&gt;&lt;/span&gt;" style="rounded=0;whiteSpace=wrap;html=1;strokeWidth=4;" parent="WIyWlLk6GJQsqaUBKTNV-1" vertex="1">
          <mxGeometry x="1408.7500000000002" y="2204.5" width="450.87" height="120" as="geometry" />
        </mxCell>
        <mxCell id="_ORsjMrNldVAI8FVxGZS-1" value="" style="endArrow=classic;html=1;rounded=0;exitX=0;exitY=0.5;exitDx=0;exitDy=0;entryX=0;entryY=0.5;entryDx=0;entryDy=0;strokeWidth=4;" parent="WIyWlLk6GJQsqaUBKTNV-1" source="_ORsjMrNldVAI8FVxGZS-4" target="_ORsjMrNldVAI8FVxGZS-9" edge="1">
          <mxGeometry width="50" height="50" relative="1" as="geometry">
            <mxPoint x="1515.3099999999995" y="1434.5" as="sourcePoint" />
            <mxPoint x="1589.56" y="1804.5" as="targetPoint" />
            <Array as="points">
              <mxPoint x="1439.37" y="1250" />
              <mxPoint x="1440" y="1910" />
            </Array>
          </mxGeometry>
        </mxCell>
        <mxCell id="_ORsjMrNldVAI8FVxGZS-2" value="" style="endArrow=classic;html=1;rounded=0;exitX=1;exitY=0.5;exitDx=0;exitDy=0;entryX=0.5;entryY=0;entryDx=0;entryDy=0;strokeWidth=4;" parent="WIyWlLk6GJQsqaUBKTNV-1" source="_ORsjMrNldVAI8FVxGZS-4" target="_ORsjMrNldVAI8FVxGZS-16" edge="1">
          <mxGeometry width="50" height="50" relative="1" as="geometry">
            <mxPoint x="1749.37" y="1250" as="sourcePoint" />
            <mxPoint x="1810.62" y="1360" as="targetPoint" />
            <Array as="points">
              <mxPoint x="1810" y="1250" />
            </Array>
          </mxGeometry>
        </mxCell>
        <mxCell id="_ORsjMrNldVAI8FVxGZS-4" value="&lt;font style=&quot;font-size: 22px;&quot;&gt;ไม่มี&amp;nbsp;&lt;font style=&quot;border-color: var(--border-color);&quot;&gt;ปี-เทอมการศึกษา&lt;br style=&quot;border-color: var(--border-color);&quot;&gt;&lt;/font&gt;เเละรหัสวิชา&lt;span style=&quot;border-color: var(--border-color);&quot;&gt;นี้&lt;/span&gt;ในฐานข้อมูล&lt;/font&gt;" style="rhombus;whiteSpace=wrap;html=1;strokeWidth=4;" parent="WIyWlLk6GJQsqaUBKTNV-1" vertex="1">
          <mxGeometry x="1485" y="1160" width="310" height="180" as="geometry" />
        </mxCell>
        <mxCell id="_ORsjMrNldVAI8FVxGZS-5" value="&lt;font style=&quot;font-size: 23px;&quot;&gt;F&lt;/font&gt;" style="text;html=1;align=center;verticalAlign=middle;resizable=0;points=[];autosize=1;strokeColor=none;fillColor=none;strokeWidth=4;" parent="WIyWlLk6GJQsqaUBKTNV-1" vertex="1">
          <mxGeometry x="1440" y="1200" width="40" height="40" as="geometry" />
        </mxCell>
        <mxCell id="_ORsjMrNldVAI8FVxGZS-6" value="&lt;font style=&quot;font-size: 23px;&quot;&gt;T&lt;/font&gt;" style="text;html=1;align=center;verticalAlign=middle;resizable=0;points=[];autosize=1;strokeColor=none;fillColor=none;strokeWidth=4;" parent="WIyWlLk6GJQsqaUBKTNV-1" vertex="1">
          <mxGeometry x="1789.37" y="1200" width="40" height="40" as="geometry" />
        </mxCell>
        <mxCell id="_ORsjMrNldVAI8FVxGZS-7" value="&lt;font style=&quot;font-size: 22px;&quot;&gt;บันทึก activity ที่ทำเข้า&lt;br&gt;log file&lt;br&gt;&lt;/font&gt;" style="rounded=0;whiteSpace=wrap;html=1;strokeWidth=4;" parent="WIyWlLk6GJQsqaUBKTNV-1" vertex="1">
          <mxGeometry x="1522.94" y="2004.5" width="220" height="120" as="geometry" />
        </mxCell>
        <mxCell id="_ORsjMrNldVAI8FVxGZS-9" value="" style="ellipse;whiteSpace=wrap;html=1;aspect=fixed;strokeWidth=4;" parent="WIyWlLk6GJQsqaUBKTNV-1" vertex="1">
          <mxGeometry x="1603.94" y="1884.5" width="50" height="50" as="geometry" />
        </mxCell>
        <mxCell id="_ORsjMrNldVAI8FVxGZS-10" value="" style="endArrow=classic;html=1;rounded=0;strokeWidth=4;" parent="WIyWlLk6GJQsqaUBKTNV-1" edge="1">
          <mxGeometry width="50" height="50" relative="1" as="geometry">
            <mxPoint x="1809.38" y="1850" as="sourcePoint" />
            <mxPoint x="1658.94" y="1904.5" as="targetPoint" />
            <Array as="points">
              <mxPoint x="1808.94" y="1904.5" />
            </Array>
          </mxGeometry>
        </mxCell>
        <mxCell id="_ORsjMrNldVAI8FVxGZS-11" value="" style="endArrow=classic;html=1;rounded=0;exitX=0.5;exitY=1;exitDx=0;exitDy=0;strokeWidth=4;" parent="WIyWlLk6GJQsqaUBKTNV-1" edge="1">
          <mxGeometry width="50" height="50" relative="1" as="geometry">
            <mxPoint x="1628.3200000000002" y="1934.5" as="sourcePoint" />
            <mxPoint x="1628.5900000000001" y="1994.5" as="targetPoint" />
          </mxGeometry>
        </mxCell>
        <mxCell id="_ORsjMrNldVAI8FVxGZS-12" value="" style="endArrow=classic;html=1;rounded=0;exitX=0.5;exitY=1;exitDx=0;exitDy=0;entryX=0.5;entryY=0;entryDx=0;entryDy=0;strokeWidth=4;" parent="WIyWlLk6GJQsqaUBKTNV-1" source="_ORsjMrNldVAI8FVxGZS-7" target="_ORsjMrNldVAI8FVxGZS-0" edge="1">
          <mxGeometry width="50" height="50" relative="1" as="geometry">
            <mxPoint x="1628.3500000000001" y="2134.5" as="sourcePoint" />
            <mxPoint x="1628.6200000000001" y="2194.5" as="targetPoint" />
          </mxGeometry>
        </mxCell>
        <mxCell id="_ORsjMrNldVAI8FVxGZS-13" value="" style="ellipse;whiteSpace=wrap;html=1;aspect=fixed;strokeWidth=4;" parent="WIyWlLk6GJQsqaUBKTNV-1" vertex="1">
          <mxGeometry x="1607.94" y="2425.5" width="50" height="50" as="geometry" />
        </mxCell>
        <mxCell id="_ORsjMrNldVAI8FVxGZS-14" value="" style="ellipse;whiteSpace=wrap;html=1;aspect=fixed;fillColor=#050505;strokeWidth=4;" parent="WIyWlLk6GJQsqaUBKTNV-1" vertex="1">
          <mxGeometry x="1615.44" y="2433" width="35" height="35" as="geometry" />
        </mxCell>
        <mxCell id="_ORsjMrNldVAI8FVxGZS-15" value="" style="endArrow=classic;html=1;rounded=0;exitX=0.5;exitY=1;exitDx=0;exitDy=0;entryX=0.5;entryY=0;entryDx=0;entryDy=0;strokeWidth=4;" parent="WIyWlLk6GJQsqaUBKTNV-1" edge="1">
          <mxGeometry width="50" height="50" relative="1" as="geometry">
            <mxPoint x="1632.94" y="2324.5" as="sourcePoint" />
            <mxPoint x="1632.9399999999996" y="2425.5" as="targetPoint" />
          </mxGeometry>
        </mxCell>
        <mxCell id="_ORsjMrNldVAI8FVxGZS-16" value="&lt;font style=&quot;font-size: 22px;&quot;&gt;สกัดข้อมูลรหัสวิชา&lt;br style=&quot;border-color: var(--border-color);&quot;&gt;ปี-เทอมการศึกษา&lt;br&gt;วันเวลาเเละห้องเรียน&lt;br style=&quot;border-color: var(--border-color);&quot;&gt;จากไฟล์&lt;/font&gt;" style="rounded=0;whiteSpace=wrap;html=1;strokeWidth=4;" parent="WIyWlLk6GJQsqaUBKTNV-1" vertex="1">
          <mxGeometry x="1699.37" y="1380" width="220" height="130" as="geometry" />
        </mxCell>
        <mxCell id="_ORsjMrNldVAI8FVxGZS-17" value="&lt;font style=&quot;font-size: 22px;&quot;&gt;ตั้งชื่อ course_id จาก&lt;br&gt;Year + Term + subj_code&lt;br&gt;&lt;br&gt;&lt;/font&gt;" style="rounded=0;whiteSpace=wrap;html=1;strokeWidth=4;" parent="WIyWlLk6GJQsqaUBKTNV-1" vertex="1">
          <mxGeometry x="1688.75" y="1580" width="260" height="110" as="geometry" />
        </mxCell>
        <mxCell id="_ORsjMrNldVAI8FVxGZS-18" value="" style="endArrow=classic;html=1;rounded=0;exitX=0.5;exitY=1;exitDx=0;exitDy=0;strokeWidth=4;" parent="WIyWlLk6GJQsqaUBKTNV-1" source="_ORsjMrNldVAI8FVxGZS-16" edge="1">
          <mxGeometry width="50" height="50" relative="1" as="geometry">
            <mxPoint x="1808.78" y="1540" as="sourcePoint" />
            <mxPoint x="1809" y="1580" as="targetPoint" />
          </mxGeometry>
        </mxCell>
        <mxCell id="6iQAIrmEhzFOREEPU1e2-1" value="&lt;font style=&quot;font-size: 22px;&quot;&gt;&lt;font style=&quot;font-size: 22px;&quot;&gt;Database&amp;nbsp;&lt;br&gt;&lt;br&gt;Course&amp;nbsp;Table&lt;br&gt;&lt;br&gt;&lt;br style=&quot;border-color: var(--border-color);&quot;&gt;&lt;br&gt;&lt;/font&gt;&lt;/font&gt;" style="shape=cylinder3;whiteSpace=wrap;html=1;boundedLbl=1;backgroundOutline=1;size=15;strokeWidth=4;" parent="WIyWlLk6GJQsqaUBKTNV-1" vertex="1">
          <mxGeometry x="2030" y="1722.5" width="181.25" height="135" as="geometry" />
        </mxCell>
        <mxCell id="6iQAIrmEhzFOREEPU1e2-2" value="" style="endArrow=classic;html=1;rounded=0;entryX=0;entryY=0.5;entryDx=0;entryDy=0;entryPerimeter=0;exitX=1;exitY=0.5;exitDx=0;exitDy=0;dashed=1;strokeWidth=4;" parent="WIyWlLk6GJQsqaUBKTNV-1" source="Z2lk5pDnI6dE7z7ncP6N-10" target="6iQAIrmEhzFOREEPU1e2-1" edge="1">
          <mxGeometry width="50" height="50" relative="1" as="geometry">
            <mxPoint x="1230" y="1350" as="sourcePoint" />
            <mxPoint x="1280" y="1300" as="targetPoint" />
          </mxGeometry>
        </mxCell>
      </root>
    </mxGraphModel>
  </diagram>
</mxfile>
